# xmcd
#
# Track frame offsets:
#	150
#	9862
#	23215
#	55495
#	115132
#	117162
#	136902
#	183842
#	189332
#	192015
#	196505
#	223230
#	238377
#	252240
#	264700
#	282495
#	293680
#	308085
#	322937
#
# Disc length: 4477 seconds
#
# Revision: 1
# Processed by: cddbd v1.5.1PL0 Copyright (c) Steve Scherf et al.
# Submitted via: CDex 1.50Beta5
#
DISCID=10117b13
DTITLE=MAHO堂 - おジャ魔女どれみドッカ〜ン！MEMORIAL CD BOX
DYEAR=2003
DGENRE=Music
TTITLE0=プロローグ〜MAHO堂
TTITLE1=いざ魔法界へしゅっぱーつ！
TTITLE2=オヤジーデのクイズコーナーその１
TTITLE3=ようこそ！魔女幼稚園編
TTITLE4=魔女ガエル村へ(インターミッション)
TTITLE5=オヤジーデのクイズコーナーその２
TTITLE6=ようこそ！魔女界ハワイアンセンター編
TTITLE7=エピローグ
TTITLE8=おまけコーナー・おジャ魔女３分間クッキング！？
TTITLE9=オープニング・ハナちゃんごあいさつ
TTITLE10=トーク１ハナちゃんのとある一日(夜編)
TTITLE11=トーク２ハナちゃんのとある一日(朝編)
TTITLE12=スーパーお嬢様！
TTITLE13=カツジ・マンガ・コクハク？
TTITLE14=涙のブロークン・ハート
TTITLE15=虹をつかみたい
TTITLE16=あの娘をつれてワールドカップ
TTITLE17=アゴより愛をこめて
TTITLE18=Midnight Rider
EXTD=
EXTT0=
EXTT1=
EXTT2=
EXTT3=
EXTT4=
EXTT5=
EXTT6=
EXTT7=
EXTT8=
EXTT9=
EXTT10=
EXTT11=
EXTT12=
EXTT13=
EXTT14=
EXTT15=
EXTT16=
EXTT17=
EXTT18=
PLAYORDER=
